# This file was created with Minddesk Qubicle 3.0
# Get Qubicle at www.getqubicle.com

mtllib Handle_01.mtl

vn 0.0 0.0 1.0
vn 0.0 0.0 -1.0
vn -1.0 0.0 0.0
vn 1.0 0.0 0.0
vn 0.0 1.0 0.0
vn 0.0 -1.0 0.0

v 5.00000 8.00000 1.00000
v 5.00000 7.00000 1.00000
v 5.00000 7.00000 0.00000
v 5.00000 8.00000 0.00000
v 4.00000 8.00000 0.00000
v 4.00000 7.00000 0.00000
v 4.00000 7.00000 1.00000
v 4.00000 8.00000 1.00000
v 3.00000 8.00000 1.00000
v 3.00000 7.00000 1.00000
v 3.00000 7.00000 2.00000
v 3.00000 8.00000 2.00000
v 4.00000 8.00000 2.00000
v 4.00000 7.00000 2.00000
v 5.00000 5.00000 2.00000
v 5.00000 4.00000 2.00000
v 5.00000 4.00000 1.00000
v 5.00000 5.00000 1.00000
v 4.00000 5.00000 1.00000
v 4.00000 4.00000 1.00000
v 4.00000 4.00000 2.00000
v 4.00000 5.00000 2.00000
v 5.00000 6.00000 2.00000
v 5.00000 6.00000 1.00000
v 4.00000 6.00000 1.00000
v 4.00000 6.00000 2.00000
v 5.00000 7.00000 2.00000
v 5.00000 8.00000 2.00000
v 6.00000 8.00000 2.00000
v 6.00000 7.00000 2.00000
v 6.00000 7.00000 1.00000
v 6.00000 8.00000 1.00000
v 0.00000 8.00000 2.00000
v 0.00000 7.00000 2.00000
v 0.00000 7.00000 3.00000
v 0.00000 8.00000 3.00000
v 1.00000 8.00000 3.00000
v 1.00000 8.00000 2.00000
v 1.00000 7.00000 2.00000
v 1.00000 7.00000 3.00000
v 2.00000 8.00000 3.00000
v 2.00000 8.00000 2.00000
v 2.00000 7.00000 2.00000
v 2.00000 7.00000 3.00000
v 3.00000 8.00000 3.00000
v 3.00000 7.00000 3.00000
v 3.00000 5.00000 2.00000
v 3.00000 4.00000 2.00000
v 3.00000 4.00000 3.00000
v 3.00000 5.00000 3.00000
v 4.00000 4.00000 3.00000
v 4.00000 5.00000 3.00000
v 3.00000 6.00000 2.00000
v 3.00000 6.00000 3.00000
v 4.00000 6.00000 3.00000
v 4.00000 7.00000 3.00000
v 4.00000 8.00000 3.00000
v 5.00000 1.00000 3.00000
v 5.00000 0.00000 3.00000
v 5.00000 0.00000 2.00000
v 5.00000 1.00000 2.00000
v 4.00000 1.00000 2.00000
v 4.00000 0.00000 2.00000
v 4.00000 0.00000 3.00000
v 4.00000 1.00000 3.00000
v 5.00000 2.00000 3.00000
v 5.00000 2.00000 2.00000
v 4.00000 2.00000 2.00000
v 4.00000 2.00000 3.00000
v 5.00000 3.00000 3.00000
v 5.00000 3.00000 2.00000
v 4.00000 3.00000 2.00000
v 4.00000 3.00000 3.00000
v 5.00000 4.00000 3.00000
v 5.00000 8.00000 3.00000
v 6.00000 5.00000 3.00000
v 6.00000 4.00000 3.00000
v 6.00000 4.00000 2.00000
v 6.00000 5.00000 2.00000
v 5.00000 5.00000 3.00000
v 6.00000 6.00000 3.00000
v 6.00000 6.00000 2.00000
v 5.00000 6.00000 3.00000
v 6.00000 7.00000 3.00000
v 5.00000 7.00000 3.00000
v 6.00000 8.00000 3.00000
v 7.00000 8.00000 3.00000
v 7.00000 8.00000 2.00000
v 7.00000 7.00000 2.00000
v 7.00000 7.00000 3.00000
v 8.00000 8.00000 3.00000
v 8.00000 8.00000 2.00000
v 8.00000 7.00000 2.00000
v 8.00000 7.00000 3.00000
v 9.00000 8.00000 3.00000
v 9.00000 7.00000 3.00000
v 9.00000 7.00000 2.00000
v 9.00000 8.00000 2.00000
v 3.00000 7.00000 4.00000
v 3.00000 8.00000 4.00000
v 4.00000 8.00000 4.00000
v 4.00000 7.00000 4.00000
v 5.00000 5.00000 4.00000
v 5.00000 4.00000 4.00000
v 4.00000 4.00000 4.00000
v 4.00000 5.00000 4.00000
v 5.00000 6.00000 4.00000
v 4.00000 6.00000 4.00000
v 5.00000 7.00000 4.00000
v 5.00000 8.00000 4.00000
v 6.00000 8.00000 4.00000
v 6.00000 7.00000 4.00000
v 5.00000 8.00000 5.00000
v 5.00000 7.00000 5.00000
v 4.00000 7.00000 5.00000
v 4.00000 8.00000 5.00000

vt 0.25000 0.50000
vt 0.25000 0.25000
vt 0.50000 0.25000
vt 0.50000 0.50000

g Handle_01
usemtl Handle_01_Material
f 1/1/4 2/2/4 3/3/4 4/4/4
f 5/1/3 6/2/3 7/3/3 8/4/3
f 5/1/5 8/2/5 1/3/5 4/4/5
f 7/1/6 6/2/6 3/3/6 2/4/6
f 4/1/2 3/2/2 6/3/2 5/4/2
f 9/1/3 10/2/3 11/3/3 12/4/3
f 9/1/5 12/2/5 13/3/5 8/4/5
f 11/1/6 10/2/6 7/3/6 14/4/6
f 8/1/2 7/2/2 10/3/2 9/4/2
f 15/1/4 16/2/4 17/3/4 18/4/4
f 19/1/3 20/2/3 21/3/3 22/4/3
f 21/1/6 20/2/6 17/3/6 16/4/6
f 18/1/2 17/2/2 20/3/2 19/4/2
f 23/1/4 15/2/4 18/3/4 24/4/4
f 25/1/3 19/2/3 22/3/3 26/4/3
f 24/1/2 18/2/2 19/3/2 25/4/2
f 27/1/4 23/2/4 24/3/4 2/4/4
f 7/1/3 25/2/3 26/3/3 14/4/3
f 2/1/2 24/2/2 25/3/2 7/4/2
f 8/1/5 13/2/5 28/3/5 1/4/5
f 29/1/4 30/2/4 31/3/4 32/4/4
f 1/1/5 28/2/5 29/3/5 32/4/5
f 27/1/6 2/2/6 31/3/6 30/4/6
f 32/1/2 31/2/2 2/3/2 1/4/2
f 33/1/3 34/2/3 35/3/3 36/4/3
f 33/1/5 36/2/5 37/3/5 38/4/5
f 35/1/6 34/2/6 39/3/6 40/4/6
f 38/1/2 39/2/2 34/3/2 33/4/2
f 36/1/1 35/2/1 40/3/1 37/4/1
f 38/1/5 37/2/5 41/3/5 42/4/5
f 40/1/6 39/2/6 43/3/6 44/4/6
f 42/1/2 43/2/2 39/3/2 38/4/2
f 37/1/1 40/2/1 44/3/1 41/4/1
f 42/1/5 41/2/5 45/3/5 12/4/5
f 44/1/6 43/2/6 11/3/6 46/4/6
f 12/1/2 11/2/2 43/3/2 42/4/2
f 41/1/1 44/2/1 46/3/1 45/4/1
f 47/1/3 48/2/3 49/3/3 50/4/3
f 49/1/6 48/2/6 21/3/6 51/4/6
f 22/1/2 21/2/2 48/3/2 47/4/2
f 50/1/1 49/2/1 51/3/1 52/4/1
f 53/1/3 47/2/3 50/3/3 54/4/3
f 26/1/2 22/2/2 47/3/2 53/4/2
f 54/1/1 50/2/1 52/3/1 55/4/1
f 11/1/3 53/2/3 54/3/3 46/4/3
f 14/1/2 26/2/2 53/3/2 11/4/2
f 46/1/1 54/2/1 55/3/1 56/4/1
f 12/1/5 45/2/5 57/3/5 13/4/5
f 58/1/4 59/2/4 60/3/4 61/4/4
f 62/1/3 63/2/3 64/3/3 65/4/3
f 64/1/6 63/2/6 60/3/6 59/4/6
f 61/1/2 60/2/2 63/3/2 62/4/2
f 65/1/1 64/2/1 59/3/1 58/4/1
f 66/1/4 58/2/4 61/3/4 67/4/4
f 68/1/3 62/2/3 65/3/3 69/4/3
f 67/1/2 61/2/2 62/3/2 68/4/2
f 69/1/1 65/2/1 58/3/1 66/4/1
f 70/1/4 66/2/4 67/3/4 71/4/4
f 72/1/3 68/2/3 69/3/3 73/4/3
f 71/1/2 67/2/2 68/3/2 72/4/2
f 73/1/1 69/2/1 66/3/1 70/4/1
f 74/1/4 70/2/4 71/3/4 16/4/4
f 21/1/3 72/2/3 73/3/3 51/4/3
f 16/1/2 71/2/2 72/3/2 21/4/2
f 51/1/1 73/2/1 70/3/1 74/4/1
f 13/1/5 57/2/5 75/3/5 28/4/5
f 76/1/4 77/2/4 78/3/4 79/4/4
f 74/1/6 16/2/6 78/3/6 77/4/6
f 79/1/2 78/2/2 16/3/2 15/4/2
f 80/1/1 74/2/1 77/3/1 76/4/1
f 81/1/4 76/2/4 79/3/4 82/4/4
f 82/1/2 79/2/2 15/3/2 23/4/2
f 83/1/1 80/2/1 76/3/1 81/4/1
f 84/1/4 81/2/4 82/3/4 30/4/4
f 30/1/2 82/2/2 23/3/2 27/4/2
f 85/1/1 83/2/1 81/3/1 84/4/1
f 28/1/5 75/2/5 86/3/5 29/4/5
f 29/1/5 86/2/5 87/3/5 88/4/5
f 84/1/6 30/2/6 89/3/6 90/4/6
f 88/1/2 89/2/2 30/3/2 29/4/2
f 86/1/1 84/2/1 90/3/1 87/4/1
f 88/1/5 87/2/5 91/3/5 92/4/5
f 90/1/6 89/2/6 93/3/6 94/4/6
f 92/1/2 93/2/2 89/3/2 88/4/2
f 87/1/1 90/2/1 94/3/1 91/4/1
f 95/1/4 96/2/4 97/3/4 98/4/4
f 92/1/5 91/2/5 95/3/5 98/4/5
f 94/1/6 93/2/6 97/3/6 96/4/6
f 98/1/2 97/2/2 93/3/2 92/4/2
f 91/1/1 94/2/1 96/3/1 95/4/1
f 45/1/3 46/2/3 99/3/3 100/4/3
f 45/1/5 100/2/5 101/3/5 57/4/5
f 99/1/6 46/2/6 56/3/6 102/4/6
f 100/1/1 99/2/1 102/3/1 101/4/1
f 103/1/4 104/2/4 74/3/4 80/4/4
f 52/1/3 51/2/3 105/3/3 106/4/3
f 105/1/6 51/2/6 74/3/6 104/4/6
f 106/1/1 105/2/1 104/3/1 103/4/1
f 107/1/4 103/2/4 80/3/4 83/4/4
f 55/1/3 52/2/3 106/3/3 108/4/3
f 108/1/1 106/2/1 103/3/1 107/4/1
f 109/1/4 107/2/4 83/3/4 85/4/4
f 56/1/3 55/2/3 108/3/3 102/4/3
f 102/1/1 108/2/1 107/3/1 109/4/1
f 57/1/5 101/2/5 110/3/5 75/4/5
f 111/1/4 112/2/4 84/3/4 86/4/4
f 75/1/5 110/2/5 111/3/5 86/4/5
f 109/1/6 85/2/6 84/3/6 112/4/6
f 110/1/1 109/2/1 112/3/1 111/4/1
f 113/1/4 114/2/4 109/3/4 110/4/4
f 101/1/3 102/2/3 115/3/3 116/4/3
f 101/1/5 116/2/5 113/3/5 110/4/5
f 115/1/6 102/2/6 109/3/6 114/4/6
f 116/1/1 115/2/1 114/3/1 113/4/1
